<mxfile host="app.diagrams.net" modified="2024-02-10T10:23:51.383Z" agent="Mozilla/5.0 (X11; Linux x86_64) AppleWebKit/537.36 (KHTML, like Gecko) Chrome/121.0.0.0 Safari/537.36" etag="ffDyhs-rqzdRgFtY-Oxz" version="23.1.2" type="github">
  <diagram name="Page-1" id="90a13364-a465-7bf4-72fc-28e22215d7a0">
    <mxGraphModel dx="1137" dy="733" grid="1" gridSize="10" guides="1" tooltips="1" connect="1" arrows="1" fold="1" page="1" pageScale="1.5" pageWidth="1169" pageHeight="826" background="none" math="0" shadow="0">
      <root>
        <mxCell id="0" style=";html=1;" />
        <mxCell id="1" style=";html=1;" parent="0" />
        <mxCell id="E_o0MLlyK3zpq6_qdfnP-8" style="edgeStyle=orthogonalEdgeStyle;rounded=0;orthogonalLoop=1;jettySize=auto;html=1;entryX=0;entryY=0.5;entryDx=0;entryDy=0;fillColor=#dae8fc;strokeColor=#6c8ebf;" edge="1" parent="1" source="3a17f1ce550125da-2" target="3a17f1ce550125da-5">
          <mxGeometry relative="1" as="geometry" />
        </mxCell>
        <mxCell id="E_o0MLlyK3zpq6_qdfnP-9" style="edgeStyle=orthogonalEdgeStyle;rounded=0;orthogonalLoop=1;jettySize=auto;html=1;entryX=0;entryY=0.5;entryDx=0;entryDy=0;fillColor=#dae8fc;strokeColor=#6c8ebf;" edge="1" parent="1" source="3a17f1ce550125da-2" target="3a17f1ce550125da-4">
          <mxGeometry relative="1" as="geometry" />
        </mxCell>
        <mxCell id="E_o0MLlyK3zpq6_qdfnP-10" style="edgeStyle=orthogonalEdgeStyle;rounded=0;orthogonalLoop=1;jettySize=auto;html=1;entryX=0;entryY=0.5;entryDx=0;entryDy=0;fillColor=#dae8fc;strokeColor=#6c8ebf;" edge="1" parent="1" source="3a17f1ce550125da-2" target="E_o0MLlyK3zpq6_qdfnP-7">
          <mxGeometry relative="1" as="geometry" />
        </mxCell>
        <mxCell id="E_o0MLlyK3zpq6_qdfnP-15" style="edgeStyle=orthogonalEdgeStyle;rounded=0;orthogonalLoop=1;jettySize=auto;html=1;entryX=0;entryY=0.5;entryDx=0;entryDy=0;fillColor=#dae8fc;strokeColor=#6c8ebf;" edge="1" parent="1" source="3a17f1ce550125da-2" target="E_o0MLlyK3zpq6_qdfnP-11">
          <mxGeometry relative="1" as="geometry" />
        </mxCell>
        <mxCell id="E_o0MLlyK3zpq6_qdfnP-16" style="edgeStyle=orthogonalEdgeStyle;rounded=0;orthogonalLoop=1;jettySize=auto;html=1;entryX=0;entryY=0.5;entryDx=0;entryDy=0;fillColor=#dae8fc;strokeColor=#6c8ebf;" edge="1" parent="1" source="3a17f1ce550125da-2" target="E_o0MLlyK3zpq6_qdfnP-12">
          <mxGeometry relative="1" as="geometry" />
        </mxCell>
        <mxCell id="E_o0MLlyK3zpq6_qdfnP-17" style="edgeStyle=orthogonalEdgeStyle;rounded=0;orthogonalLoop=1;jettySize=auto;html=1;entryX=0;entryY=0.5;entryDx=0;entryDy=0;fillColor=#dae8fc;strokeColor=#6c8ebf;" edge="1" parent="1" source="3a17f1ce550125da-2" target="E_o0MLlyK3zpq6_qdfnP-13">
          <mxGeometry relative="1" as="geometry" />
        </mxCell>
        <mxCell id="E_o0MLlyK3zpq6_qdfnP-29" style="edgeStyle=orthogonalEdgeStyle;rounded=0;orthogonalLoop=1;jettySize=auto;html=1;entryX=0;entryY=0.5;entryDx=0;entryDy=0;fillColor=#dae8fc;strokeColor=#6c8ebf;" edge="1" parent="1" source="3a17f1ce550125da-2" target="E_o0MLlyK3zpq6_qdfnP-28">
          <mxGeometry relative="1" as="geometry" />
        </mxCell>
        <mxCell id="3a17f1ce550125da-2" value="phaidra-api" style="whiteSpace=wrap;html=1;shadow=1;fontSize=18;fillColor=#dae8fc;strokeColor=#6c8ebf;" parent="1" vertex="1">
          <mxGeometry x="367" y="270" width="253" height="160" as="geometry" />
        </mxCell>
        <mxCell id="3a17f1ce550125da-4" value="phaidra-ui" style="whiteSpace=wrap;html=1;shadow=1;fontSize=18;fillColor=#dae8fc;strokeColor=#6c8ebf;" parent="1" vertex="1">
          <mxGeometry x="700" y="270" width="233" height="60" as="geometry" />
        </mxCell>
        <mxCell id="3a17f1ce550125da-5" value="phaidra-vue-components" style="whiteSpace=wrap;html=1;shadow=1;fontSize=18;fillColor=#dae8fc;strokeColor=#6c8ebf;" parent="1" vertex="1">
          <mxGeometry x="700" y="330" width="233" height="60" as="geometry" />
        </mxCell>
        <mxCell id="3a17f1ce550125da-20" style="edgeStyle=elbowEdgeStyle;rounded=0;html=1;startArrow=none;startFill=0;jettySize=auto;orthogonalLoop=1;fontSize=18;elbow=vertical;fillColor=#dae8fc;strokeColor=#6c8ebf;" parent="1" source="3a17f1ce550125da-8" target="3a17f1ce550125da-2" edge="1">
          <mxGeometry relative="1" as="geometry">
            <Array as="points">
              <mxPoint x="320" y="350" />
              <mxPoint x="337" y="334" />
            </Array>
          </mxGeometry>
        </mxCell>
        <mxCell id="E_o0MLlyK3zpq6_qdfnP-31" style="edgeStyle=orthogonalEdgeStyle;rounded=0;orthogonalLoop=1;jettySize=auto;html=1;entryX=0;entryY=0.5;entryDx=0;entryDy=0;fillColor=#dae8fc;strokeColor=#6c8ebf;" edge="1" parent="1" source="3a17f1ce550125da-8" target="E_o0MLlyK3zpq6_qdfnP-26">
          <mxGeometry relative="1" as="geometry" />
        </mxCell>
        <mxCell id="3a17f1ce550125da-8" value="Fedora repository" style="whiteSpace=wrap;html=1;shadow=1;fontSize=18;fillColor=#dae8fc;strokeColor=#6c8ebf;" parent="1" vertex="1">
          <mxGeometry x="210" y="270" width="120" height="160" as="geometry" />
        </mxCell>
        <mxCell id="E_o0MLlyK3zpq6_qdfnP-2" style="edgeStyle=orthogonalEdgeStyle;rounded=0;orthogonalLoop=1;jettySize=auto;html=1;entryX=0;entryY=0.5;entryDx=0;entryDy=0;fillColor=#dae8fc;strokeColor=#6c8ebf;" edge="1" parent="1" source="E_o0MLlyK3zpq6_qdfnP-1" target="3a17f1ce550125da-8">
          <mxGeometry relative="1" as="geometry" />
        </mxCell>
        <mxCell id="E_o0MLlyK3zpq6_qdfnP-1" value="OCFL" style="whiteSpace=wrap;html=1;shadow=1;fontSize=18;fillColor=#dae8fc;strokeColor=#6c8ebf;" vertex="1" parent="1">
          <mxGeometry x="50" y="270" width="120" height="160" as="geometry" />
        </mxCell>
        <mxCell id="E_o0MLlyK3zpq6_qdfnP-3" value="Fedora DB" style="shape=cylinder3;whiteSpace=wrap;html=1;boundedLbl=1;backgroundOutline=1;size=15;fillColor=#dae8fc;strokeColor=#6c8ebf;" vertex="1" parent="1">
          <mxGeometry x="290" y="460" width="60" height="80" as="geometry" />
        </mxCell>
        <mxCell id="E_o0MLlyK3zpq6_qdfnP-4" value="Phaidra DBs" style="shape=cylinder3;whiteSpace=wrap;html=1;boundedLbl=1;backgroundOutline=1;size=15;fillColor=#dae8fc;strokeColor=#6c8ebf;" vertex="1" parent="1">
          <mxGeometry x="560" y="450" width="60" height="80" as="geometry" />
        </mxCell>
        <mxCell id="E_o0MLlyK3zpq6_qdfnP-7" value="Other UIs" style="whiteSpace=wrap;html=1;shadow=1;fontSize=18;fillColor=#dae8fc;strokeColor=#6c8ebf;" vertex="1" parent="1">
          <mxGeometry x="700" y="410" width="233" height="60" as="geometry" />
        </mxCell>
        <mxCell id="E_o0MLlyK3zpq6_qdfnP-11" value="Solr" style="whiteSpace=wrap;html=1;shadow=1;fontSize=18;fillColor=#dae8fc;strokeColor=#6c8ebf;" vertex="1" parent="1">
          <mxGeometry x="520" y="560" width="133" height="60" as="geometry" />
        </mxCell>
        <mxCell id="E_o0MLlyK3zpq6_qdfnP-12" value="IIIF Imageserver" style="whiteSpace=wrap;html=1;shadow=1;fontSize=18;fillColor=#dae8fc;strokeColor=#6c8ebf;" vertex="1" parent="1">
          <mxGeometry x="520" y="640" width="133" height="60" as="geometry" />
        </mxCell>
        <mxCell id="E_o0MLlyK3zpq6_qdfnP-13" value="Other components" style="whiteSpace=wrap;html=1;shadow=1;fontSize=18;fillColor=#dae8fc;strokeColor=#6c8ebf;" vertex="1" parent="1">
          <mxGeometry x="520" y="720" width="133" height="60" as="geometry" />
        </mxCell>
        <mxCell id="E_o0MLlyK3zpq6_qdfnP-18" style="edgeStyle=orthogonalEdgeStyle;rounded=0;orthogonalLoop=1;jettySize=auto;html=1;entryX=-0.011;entryY=0.577;entryDx=0;entryDy=0;entryPerimeter=0;fillColor=#dae8fc;strokeColor=#6c8ebf;" edge="1" parent="1" source="3a17f1ce550125da-2" target="E_o0MLlyK3zpq6_qdfnP-4">
          <mxGeometry relative="1" as="geometry" />
        </mxCell>
        <mxCell id="E_o0MLlyK3zpq6_qdfnP-19" style="edgeStyle=orthogonalEdgeStyle;rounded=0;orthogonalLoop=1;jettySize=auto;html=1;entryX=0;entryY=0.5;entryDx=0;entryDy=0;entryPerimeter=0;fillColor=#dae8fc;strokeColor=#6c8ebf;" edge="1" parent="1" source="3a17f1ce550125da-8" target="E_o0MLlyK3zpq6_qdfnP-3">
          <mxGeometry relative="1" as="geometry" />
        </mxCell>
        <mxCell id="E_o0MLlyK3zpq6_qdfnP-24" value="Monitoring" style="whiteSpace=wrap;html=1;shadow=1;fontSize=18;fillColor=#dae8fc;strokeColor=#6c8ebf;" vertex="1" parent="1">
          <mxGeometry x="50" y="490" width="133" height="60" as="geometry" />
        </mxCell>
        <mxCell id="E_o0MLlyK3zpq6_qdfnP-25" value="Backup" style="whiteSpace=wrap;html=1;shadow=1;fontSize=18;fillColor=#dae8fc;strokeColor=#6c8ebf;" vertex="1" parent="1">
          <mxGeometry x="50" y="570" width="133" height="60" as="geometry" />
        </mxCell>
        <mxCell id="E_o0MLlyK3zpq6_qdfnP-26" value="Fixity" style="whiteSpace=wrap;html=1;shadow=1;fontSize=18;fillColor=#dae8fc;strokeColor=#6c8ebf;" vertex="1" parent="1">
          <mxGeometry x="290" y="560" width="133" height="60" as="geometry" />
        </mxCell>
        <mxCell id="E_o0MLlyK3zpq6_qdfnP-27" value="Other services" style="whiteSpace=wrap;html=1;shadow=1;fontSize=18;fillColor=#dae8fc;strokeColor=#6c8ebf;" vertex="1" parent="1">
          <mxGeometry x="50" y="650" width="133" height="60" as="geometry" />
        </mxCell>
        <mxCell id="E_o0MLlyK3zpq6_qdfnP-28" value="Harvesters" style="whiteSpace=wrap;html=1;shadow=1;fontSize=18;fillColor=#dae8fc;strokeColor=#6c8ebf;" vertex="1" parent="1">
          <mxGeometry x="700" y="480" width="233" height="60" as="geometry" />
        </mxCell>
      </root>
    </mxGraphModel>
  </diagram>
</mxfile>
